<svg width="76" height="87" viewBox="0 0 76 87" fill="none" xmlns="http://www.w3.org/2000/svg">
<path d="M35.7826 18.4033C34.6483 25.962 33.7387 32.3307 32.1052 42.2437C36.5223 42.1534 46.5563 43.8159 48.7622 30.268C50.5918 18.9945 42.4449 17.9541 35.7826 18.4033Z" fill="#191C1F"/>
<path d="M74.0633 72.9152C75.7805 76.5345 74.0503 81.109 70.4617 82.9522C68.4021 84.0106 66.0524 84.9967 63.7 85.5466C61.332 86.0991 57.4821 86.7961 52.5709 86.9871C52.3383 86.9948 52.1057 87 51.8783 87C45.5061 87 39.1235 83.5511 36.3687 79.3509C35.6577 80.8018 33.0859 83.7111 28.5877 85.0819C25.744 85.9493 22.3148 87 15.1585 86.9923C8.74714 86.9871 5.0932 84.2403 3.15645 81.9299C0.0801318 78.2615 -0.372037 73.6019 0.229113 70.4628L0.260477 70.313C2.67553 58.8278 5.98969 37.9562 7.51086 27.4958L7.52655 27.3926C7.94474 24.4935 8.36815 21.5919 8.61907 18.6722C8.74453 17.2007 8.82816 15.7241 8.84385 14.2474C8.85953 12.8508 8.721 11.4568 8.73668 10.0602C8.75237 8.74621 8.97453 7.41156 9.62795 6.24987C10.6865 4.36794 12.6285 2.88615 14.6802 2.24076C16.9306 1.53343 19.2856 1.2443 21.6248 0.991306C24.0163 0.733153 26.4105 0.477582 28.8177 0.307202C29.7795 0.240082 30.7414 0.183288 31.7032 0.136821C33.6713 0.0464675 35.6447 0 37.6154 0C42.6415 0 47.699 0.0826089 52.6467 1.04552C57.6938 2.0265 62.7879 3.90843 66.7685 7.20246C69.4946 9.45871 71.6614 12.3087 73.2845 15.4246C74.7141 18.1714 75.2918 21.0601 75.6342 23.2725C76.0184 25.7481 76.0994 28.2651 75.8799 30.7537C75.7335 32.4059 75.4983 33.8541 75.1611 35.1785C74.4423 37.9975 73.2139 40.6978 71.5071 43.2044C69.6122 45.9899 67.1815 48.5146 64.079 50.9232C65.9687 56.1017 70.8877 66.2265 74.0633 72.9152ZM17.6389 10.5868C17.7565 12.5075 17.7748 14.4488 17.6886 16.3772C17.5997 18.3469 17.4194 20.3114 17.1894 22.2682C16.962 24.2199 16.6849 26.1638 16.4053 28.1077C16.3739 28.3193 16.3451 28.531 16.3138 28.7453C15.4304 34.8222 14.5051 40.894 13.5302 46.9554C12.5082 53.3214 11.3608 59.6591 10.2134 66.0045C9.68023 68.9603 8.48577 72.75 10.1193 75.5742C11.5778 78.0937 15.3127 78.3984 17.916 78.1454C27.4011 77.2289 28.9066 75.236 28.9066 75.236C27.0169 73.256 28.6583 64.2232 30.5636 52.0797H37.3044L44.3587 72.2595C44.3587 72.2595 46.4392 78.5119 52.2207 78.2099C59.6253 77.8253 65.0722 76.2221 65.8563 75.3367C63.5746 74.1311 57.0586 58.7142 53.504 47.3917C55.2238 46.4029 56.8914 45.3238 58.4622 44.1157C60.6133 42.4609 62.6023 40.5506 64.1287 38.3073C65.2238 36.6964 66.0602 34.9203 66.5385 33.0358C66.792 32.0419 66.9332 31.0041 67.0221 29.9844C67.1815 28.1903 67.1214 26.378 66.8443 24.5994C66.5803 22.8904 66.1831 20.9878 65.378 19.4415C63.8752 16.5553 61.7502 14.0383 58.8543 12.4275C53.9666 9.7117 48.3341 9.19281 42.8428 8.90626C36.8914 8.5939 30.9113 8.77977 24.9912 9.46129C24.33 9.53874 17.6128 10.0963 17.6389 10.5868Z" fill="#191C1F"/>
</svg>
